Patient4_TMGait_0pt2_03_left_19_EMG.mot
version=1
nRows=19
nColumns=33
inDegrees=no
endheader
time	1LAddLong	2LGlutMax	3LGlutMed	4LIliopsoas	5LSemiMemb	6LBicFemLong	7LRecFem	8LVastMed	9LVastLat	10LGasMed	11LTibAnt	12lTibPost	13LPeroneusLong	14LSol	15LExtDigLong	16LFlexDigLong	17RAddLong	18RGlutMax	19RGlutMed	20RIliopsoas	21RSemiMemb	22RBicFemLong	23RRecFem	24RVastMed	25RVastLat	26RGasMed	27RTibAnt	28RTibPost	29RPeroneusLong	30RSol	31RExtDigLong	32RFlexDigLong
40.427	-0.007477	0.15701	0.15579	-0.000153	-0.067749	0.12726	-0.056152	-0.015106	-0.2446	0.01297	0.14221	0.007019	-0.066223	0.078125	0.21805	0.005035	0.007477	-0.071259	-0.092316	-0.010834	-0.005951	-0.042114	-0.014191	-0.065765	0.002594	-0.019989	0.000153	0.004578	0.22095	0.24887	-0.007019	0.000763
40.428	-0.00946	0.18662	0.26001	0.007629	-0.085907	0.094757	-0.013428	-0.010223	-0.34058	0.005646	0.11368	0.006714	-0.042419	0.11002	0.24231	0.00412	-0.010681	-0.059204	-0.15121	-0.016174	-0.028534	-0.023956	-0.015717	-0.037537	0.004425	0.018768	0.004578	0.005035	-0.14114	0.00351	-0.005341	-0.001526
40.429	-0.001678	0.19577	0.15564	0.011902	-0.10895	-0.014648	-0.011902	-0.001831	-0.52185	-0.022736	-0.2002	0.010223	-0.022583	0.14481	-0.09201	-0.007019	0.00946	-0.04776	-0.1265	0.001373	-0.023651	-0.024567	-0.011749	-0.05188	0.006714	0.02655	-0.005798	-0.010681	-0.13916	-0.047455	-0.004883	-0.007324
40.43	0.00946	0.19486	-0.080566	0.018768	-0.029907	-0.11719	0.070953	0.011597	-0.46249	-0.019073	-0.32867	0.00473	0.0177	0.056458	-0.19821	-0.00061	0.011749	-0.029907	-0.085297	-0.018921	0.00061	0.001831	-0.012817	-0.041656	-0.001984	-0.008545	-0.00412	0.056458	0.034485	-0.15411	-0.004578	-0.013733
40.431	0.024567	0.24262	-0.18158	0.006409	0.036774	-0.21927	0.073547	0.005188	-0.21393	-0.024109	-0.033264	0.00351	0.00824	0.042419	-0.31097	0.007324	0.012054	0.050049	-0.10864	-0.049133	-0.024872	0.002441	-0.034332	-0.016174	0.027924	0.009918	0.001526	-0.004578	0.005188	-0.09079	-0.007782	-0.013123
40.432	0.033569	0.22568	-0.20966	0.006256	0.016479	-0.42358	0.079498	-0.006561	-0.1651	-0.010071	0.047913	0.003204	0.017395	0.03418	-0.32959	0.010376	0.012817	0.015564	-0.083313	-0.042725	-0.081177	0.016785	0.005341	-0.019073	-0.007019	0.02182	0.013123	-0.023346	-0.020294	-0.093384	-0.012665	-0.018768
40.433	0.036926	0.10147	-0.061798	0.007019	0.032806	-0.37521	0.12466	-0.014954	-0.16113	0.002594	-0.06897	0.003357	0.025787	-0.049438	0.19073	0.001526	0.011597	0.007935	-0.076141	0.031738	-0.10864	0.015564	0.027924	-0.05127	0.007629	0.012207	0.032196	-0.018768	-0.092773	-0.005951	-0.005951	-0.0177
40.434	0.033722	0.07843	-0.020905	0.009613	0.010986	-0.17914	0.11719	0.003815	-0.12131	0.010223	-0.26993	0.00824	0.018005	-0.17868	-0.18631	-0.000916	0.014496	0.002747	-0.070801	0.032806	-0.031891	0.028687	-0.016479	-0.039825	0.009613	0.012512	0.017853	0.010529	-0.19791	0.006866	-0.00412	-0.018463
40.435	0.016785	0.008545	-0.03067	0.008392	-0.019531	-0.001526	0.15472	0.015411	-0.069885	0.018463	-0.17777	0.003967	0.02594	-0.27206	-0.021667	0.000153	0.005493	0.051575	-0.10834	0.029602	0.073395	-0.011139	-0.009308	-0.023346	0.012207	0.015106	0.004578	-0.003357	-0.1622	-0.029449	-0.007782	-0.010681
40.436	0.01358	0.11688	-0.043945	0.001526	-0.043335	0.059509	0.17716	0.021362	-0.046539	0.012207	-0.049591	0.005341	-0.025177	-0.32471	-0.25787	0.01236	0.00824	-0.005341	-0.10971	0.007324	0.074768	-0.019073	-0.002899	-0.015717	0.018005	0.015106	0.002747	0.006409	-0.10956	-0.10193	-0.005798	-0.00946
40.437	0.001373	0.20096	-0.033722	-0.002747	-0.03479	0.043335	0.095062	0.015869	0.001984	0.005493	0.04364	0.011749	0.000458	-0.20538	-0.20233	0.003204	0.009613	0.015106	-0.15915	0.00824	0.021362	-0.0177	-0.002594	-0.017853	0.023651	0.004425	0.036926	0.002289	-0.17975	-0.16235	-0.005493	-0.010834
40.438	-0.006256	0.15747	-0.037537	0.014038	0.034637	0.016785	0.11261	0.024719	0.014648	-0.014801	-0.005646	0.001526	0.007019	-0.052185	0.002747	0.004578	0.004578	-0.083923	-0.09964	-0.097961	0.066681	-0.013275	-0.031281	-0.012665	0.017548	0.009308	0.032043	-0.00824	-0.004272	0.053711	-0.007935	-0.008087
40.439	-0.012665	0.25589	-0.030975	0.007172	-0.003815	0.006409	0.12039	0.010376	0.017853	0.002136	-0.056458	0.003967	0.019836	-0.019989	-0.057678	0.003204	-0.000916	-0.020905	-0.17639	-0.1236	0.041046	-0.026855	-0.05188	-0.027618	0.006714	0.007629	0.025177	-0.008087	0.03418	0.15396	-0.00885	-0.013733
40.44	-0.022278	0.29541	0.056152	0.005951	-0.00824	0.011292	0.054932	-0.002441	0.017548	0.026093	0.011749	0.005798	-0.005951	-0.058746	-0.068512	0.006104	0.009613	-0.002441	-0.10101	-0.13916	-0.001068	-0.037842	0.000153	-0.030975	0.016632	-0.000458	-0.002747	-0.006409	-0.087128	0.18417	-0.007019	-0.00824
40.441	-0.040283	0.31418	0.054626	0.011292	-0.037842	0.052185	0.04837	-0.012665	-0.013428	0.022888	0.052338	0.003967	-0.02182	-0.055542	0.003357	0.005646	0.016937	-0.021057	-0.090637	-0.055695	-0.011444	-0.039978	-0.018158	-0.027161	0.030365	-0.008545	-0.012665	0.010529	0.036316	0.18066	-0.002899	-0.002289
40.442	-0.036163	0.35049	0.059662	0.014648	-0.075836	0.074921	-0.063019	-0.017395	0.081329	0.012207	0.051575	0.008698	-0.009155	-0.045624	0.062714	0.001526	0.021362	0.019836	-0.032654	0.055695	-0.031738	-0.012207	0.003662	-0.050964	0.021973	-0.053864	0.021667	0.00473	-0.16266	0.10773	-0.009766	0.001984
40.443	-0.031586	0.41641	0.10498	0.005646	-0.060425	0.052338	-0.026703	-0.015259	0.11429	0.025024	0.033875	0.003967	0.005646	-0.004883	0.032196	-0.000458	0.028229	-0.011749	-0.04715	0.13672	-0.065918	-0.032654	0.023804	-0.045013	0.019226	-0.012207	0.010681	-0.20554	-0.34698	-0.27985	-0.008545	-0.001984
40.444	-0.020905	0.45868	0.047913	0.001526	-0.065613	0.094757	0.062714	-0.010376	0.067444	0.009918	-0.032959	-0.001831	0.015869	0.001526	0.017242	0.003204	0.009766	-0.083618	-0.081787	0.1265	-0.070038	-0.020447	-0.008392	-0.037994	-0.000305	0.003204	0.022583	-0.5426	-0.56641	-0.67017	-0.008545	-0.00885
40.445	-0.00473	0.45654	-0.053558	-0.003357	-0.032654	0.072174	0.11322	-0.006104	-0.003815	0.014496	-0.0177	0.035095	0.010223	-0.003815	0.036163	-0.00412	0.005341	-0.084534	-0.24307	0.11597	0.04303	0.037384	0.012665	-0.039368	0.010529	-0.002747	0.012054	0.39719	-0.012512	-0.65002	-0.002289	-0.014648
